P3
10 5
255
219 234 255
221 235 255
220 235 255
220 235 255
221 235 255
222 236 255
220 235 255
220 235 255
220 235 255
220 235 255
222 236 255
0 0 255
0 0 255
222 236 255
0 0 255
222 236 255
223 236 255
222 236 255
222 236 255
223 236 255
0 0 255
183 0 0
1 35 0
3 65 191
0 0 2
0 0 0
0 0 0
155 209 214
155 13 1
183 0 0
0 0 0
0 0 2
0 0 255
0 0 0
132 177 20
0 0 255
0 0 255
149 0 0
47 43 19
187 0 0
0 0 255
0 0 255
0 0 9
184 0 0
198 0 0
186 0 0
0 0 255
208 0 0
0 0 255
0 0 255
